<svg xmlns="http://www.w3.org/2000/svg" xmlns:xlink="http://www.w3.org/1999/xlink" xmlns:lucid="lucid" width="1870.87" height="2581.67"><g transform="translate(0 2517.6692913385823)" lucid:page-tab-id="0_0"><path d="M0-2517.67h1870.87V64H0z" fill="#21252c"/><path d="M523.57-2474a6 6 0 0 1 6-6h811.73a6 6 0 0 1 6 6v94a6 6 0 0 1-6 6H529.57a6 6 0 0 1-6-6z" stroke="#000" stroke-opacity="0" stroke-width="3" fill="#fff" fill-opacity="0"/><use xlink:href="#a" transform="matrix(1,0,0,1,528.5691858320065,-2475) translate(75.5648148148149 35.66666666666666)"/><use xlink:href="#b" transform="matrix(1,0,0,1,528.5691858320065,-2475) translate(267.8796296296297 35.66666666666666)"/><use xlink:href="#c" transform="matrix(1,0,0,1,528.5691858320065,-2475) translate(466.67592592592587 35.66666666666666)"/><use xlink:href="#d" transform="matrix(1,0,0,1,528.5691858320065,-2475) translate(486.95370370370364 35.66666666666666)"/><use xlink:href="#e" transform="matrix(1,0,0,1,528.5691858320065,-2475) translate(654.6388888888888 35.66666666666666)"/><use xlink:href="#f" transform="matrix(1,0,0,1,528.5691858320065,-2475) translate(686.6759259259259 35.66666666666666)"/><use xlink:href="#g" transform="matrix(1,0,0,1,528.5691858320065,-2475) translate(714.4537037037036 35.66666666666666)"/><use xlink:href="#h" transform="matrix(1,0,0,1,528.5691858320065,-2475) translate(213.04012345679024 73.88888888888886)"/><use xlink:href="#i" transform="matrix(1,0,0,1,528.5691858320065,-2475) translate(382.58950617283955 73.88888888888886)"/><use xlink:href="#j" transform="matrix(1,0,0,1,528.5691858320065,-2475) translate(423.26234567901236 73.88888888888886)"/><path d="M983.43-2320c17.68 0 32 17.9 32 40s-14.32 40-32 40h-96c-17.67 0-32-17.9-32-40s14.33-40 32-40z" stroke="#a9a9a9" stroke-width="2" fill="#f5fbff"/><use xlink:href="#k" transform="matrix(1,0,0,1,860.4330708661416,-2315) translate(47.55 38.4625)"/><path d="M855.43-2134a6 6 0 0 1 6-6h148a6 6 0 0 1 6 6v68a6 6 0 0 1-6 6h-148a6 6 0 0 1-6-6z" stroke="#a9a9a9" stroke-width="2" fill="#f5fbff"/><use xlink:href="#l" transform="matrix(1,0,0,1,867.4330708661416,-2128) translate(46.75 31.9)"/><use xlink:href="#m" transform="matrix(1,0,0,1,867.4330708661416,-2128) translate(63.75 31.9)"/><use xlink:href="#n" transform="matrix(1,0,0,1,867.4330708661416,-2128) translate(79.25 31.9)"/><path d="M935.43-2237.5v75.92" stroke="#bdf139" stroke-width="3" fill="none"/><path d="M936.93-2237.46h-3v-1.54h3z" stroke="#bdf139" stroke-width=".05" fill="#bdf139"/><path d="M935.43-2145.82l-4.63-14.26h9.27z" stroke="#bdf139" stroke-width="3" fill="#bdf139"/><path d="M855.43-1854a6 6 0 0 1 6-6h148a6 6 0 0 1 6 6v88a6 6 0 0 1-6 6h-148a6 6 0 0 1-6-6z" stroke="#a9a9a9" stroke-width="2" fill="#f5fbff"/><use xlink:href="#l" transform="matrix(1,0,0,1,867.4330708661416,-1848) translate(28 40.525)"/><use xlink:href="#o" transform="matrix(1,0,0,1,867.4330708661416,-1848) translate(45 40.525)"/><use xlink:href="#p" transform="matrix(1,0,0,1,867.4330708661416,-1848) translate(65.5 40.525)"/><use xlink:href="#q" transform="matrix(1,0,0,1,867.4330708661416,-1848) translate(82.5 40.525)"/><use xlink:href="#r" transform="matrix(1,0,0,1,867.4330708661416,-1848) translate(98 40.525)"/><path d="M855.43-1657.4a6.65 6.65 0 0 1 5.97-6.62l148.07-15.36a5.4 5.4 0 0 1 5.96 5.38v88a6 6 0 0 1-6 6h-148a6 6 0 0 1-6-6z" stroke="#a9a9a9" stroke-width="2" fill="#f5fbff"/><use xlink:href="#s" transform="matrix(1,0,0,1,860.4330708661416,-1658.3333333333333) translate(38.5 39.8375)"/><path d="M935.43-1757.54v64.25" stroke="#bdf139" stroke-width="3" fill="none"/><path d="M936.93-1757.5h-3v-1.54h3z" stroke="#bdf139" stroke-width=".05" fill="#bdf139"/><path d="M935.43-1677.52l-4.63-14.27h9.27z" stroke="#bdf139" stroke-width="3" fill="#bdf139"/><path d="M930.07-1477.32a12 12 0 0 1 10.73 0l69.27 34.64a3 3 0 0 1 0 5.36l-69.27 34.64a12 12 0 0 1-10.73 0l-69.27-34.64a3 3 0 0 1 0-5.36z" stroke="#a9a9a9" stroke-width="2" fill="#f5fbff"/><use xlink:href="#l" transform="matrix(1,0,0,1,860.4330708661416,-1475) translate(53.755 38.4625)"/><use xlink:href="#t" transform="matrix(1,0,0,1,860.4330708661416,-1475) translate(70.755 38.4625)"/><use xlink:href="#u" transform="matrix(1,0,0,1,860.4330708661416,-1475) translate(86.255 38.4625)"/><path d="M935.43-1577.54v77.33" stroke="#bdf139" stroke-width="3" fill="none"/><path d="M936.93-1577.5h-3v-1.54h3z" stroke="#bdf139" stroke-width=".05" fill="#bdf139"/><path d="M935.43-1484.44l-4.63-14.27h9.27z" stroke="#bdf139" stroke-width="3" fill="#bdf139"/><path d="M975.43-1960c0 22.1-17.9 40-40 40s-40-17.9-40-40 17.9-40 40-40 40 17.9 40 40z" stroke="#a9a9a9" stroke-width="2" fill="#c3f7c8"/><use xlink:href="#v" transform="matrix(1,0,0,1,900.4330708661416,-1995) translate(29 38.4625)"/><path d="M935.43-2057.54v35.92" stroke="#bdf139" stroke-width="3" fill="none"/><path d="M936.93-2057.5h-3v-1.54h3z" stroke="#bdf139" stroke-width=".05" fill="#bdf139"/><path d="M935.43-2005.85l-4.63-14.27h9.27z" stroke="#bdf139" stroke-width="3" fill="#bdf139"/><path d="M935.43-1917.5v35.92" stroke="#bdf139" stroke-width="3" fill="none"/><path d="M935.42-1919l1.5-.05v1.6h-3v-1.64z" stroke="#bdf139" stroke-width=".05" fill="#bdf139"/><path d="M935.43-1865.82l-4.63-14.26h9.27z" stroke="#bdf139" stroke-width="3" fill="#bdf139"/><path d="M760-1440c0 22.1-17.9 40-40 40s-40-17.9-40-40 17.9-40 40-40 40 17.9 40 40z" stroke="#a9a9a9" stroke-width="2" fill="#c3f7c8"/><use xlink:href="#v" transform="matrix(1,0,0,1,685,-1475) translate(29 38.4625)"/><path d="M794.12-1438.5h-12.5v-3h12.5zm62.52 0h-31.62v-3h31.62z" stroke="#bdf139" stroke-width=".05" fill="#bdf139"/><path d="M858.23-1440.88l-.1.88.1.88.22.62h-1.85v-3h1.85z" fill="#bdf139"/><path d="M858.26-1440.87l-.1.87.1.87.22.66h-1.9v-3.06h1.9zm-1.64-.6v2.94h1.8l-.2-.58-.1-.9.1-.9.2-.57z" stroke="#bdf139" stroke-width=".05" fill="#bdf139"/><path d="M780.12-1435.36l-14.27-4.64 14.27-4.64z" fill="#bdf139"/><path d="M781.62-1433.3L761-1440l20.62-6.7zm-10.9-6.7l7.9 2.57v-5.14z" stroke="#bdf139" stroke-width=".05" fill="#bdf139"/><use xlink:href="#w" transform="matrix(1,0,0,1,794.1178984942802,-1450.8) translate(0 14.4)"/><path d="M1160-1474a6 6 0 0 1 6-6h148a6 6 0 0 1 6 6v68a6 6 0 0 1-6 6h-148a6 6 0 0 1-6-6z" stroke="#a9a9a9" stroke-width="2" fill="#f5fbff"/><use xlink:href="#x" transform="matrix(1,0,0,1,1172,-1468) translate(48.25 21.4)"/><use xlink:href="#m" transform="matrix(1,0,0,1,1172,-1468) translate(62.25 21.4)"/><use xlink:href="#y" transform="matrix(1,0,0,1,1172,-1468) translate(77.75 21.4)"/><use xlink:href="#z" transform="matrix(1,0,0,1,1172,-1468) translate(48.25 43)"/><use xlink:href="#m" transform="matrix(1,0,0,1,1172,-1468) translate(62.25 43)"/><use xlink:href="#n" transform="matrix(1,0,0,1,1172,-1468) translate(77.75 43)"/><path d="M1066.4-1438.5h-52.17v-3h52.18zm72.02 0h-33.06v-3h33.06z" stroke="#bdf139" stroke-width=".05" fill="#bdf139"/><path d="M1014.27-1438.5h-1.85l.2-.62.1-.88-.1-.88-.2-.62h1.85z" fill="#bdf139"/><path d="M1014.3-1438.47h-1.92l.23-.66.1-.87-.1-.87-.22-.66h1.9zm-1.85-3l.2.58.1.9-.1.9-.2.57h1.8v-2.94z" stroke="#bdf139" stroke-width=".05" fill="#bdf139"/><path d="M1154.18-1440l-14.26 4.64v-9.28z" fill="#bdf139"/><path d="M1159.04-1440l-20.62 6.7v-13.4zm-17.62 2.57l7.9-2.57-7.9-2.57z" stroke="#bdf139" stroke-width=".05" fill="#bdf139"/><use xlink:href="#A" transform="matrix(1,0,0,1,1066.408720968881,-1450.8) translate(0 14.4)"/><path d="M1280-1300c0 22.1-17.9 40-40 40s-40-17.9-40-40 17.9-40 40-40 40 17.9 40 40z" stroke="#a9a9a9" stroke-width="2" fill="#ffdda6"/><use xlink:href="#B" transform="matrix(1,0,0,1,1205,-1335) translate(29 38.4625)"/><path d="M1240-1397.54v35.92" stroke="#bdf139" stroke-width="3" fill="none"/><path d="M1241.5-1397.5h-3v-1.54h3z" stroke="#bdf139" stroke-width=".05" fill="#bdf139"/><path d="M1240-1345.85l-4.64-14.27h9.28z" stroke="#bdf139" stroke-width="3" fill="#bdf139"/><path d="M1235.2-1216.4a8 8 0 0 1 9.6 0l70.4 52.8a4.5 4.5 0 0 1 0 7.2l-70.4 52.8a8 8 0 0 1-9.6 0l-70.4-52.8a4.5 4.5 0 0 1 0-7.2z" stroke="#a9a9a9" stroke-width="2" fill="#f5fbff"/><use xlink:href="#x" transform="matrix(1,0,0,1,1165,-1215) translate(55.255 59.0875)"/><use xlink:href="#t" transform="matrix(1,0,0,1,1165,-1215) translate(69.255 59.0875)"/><use xlink:href="#u" transform="matrix(1,0,0,1,1165,-1215) translate(84.755 59.0875)"/><path d="M1320-1054a6 6 0 0 1 6-6h208a6 6 0 0 1 6 6v68a6 6 0 0 1-6 6h-208a6 6 0 0 1-6-6z" stroke="#a9a9a9" stroke-width="2" fill="#f5fbff"/><use xlink:href="#C" transform="matrix(1,0,0,1,1332,-1048) translate(26.5 31.9)"/><use xlink:href="#m" transform="matrix(1,0,0,1,1332,-1048) translate(40.5 31.9)"/><use xlink:href="#D" transform="matrix(1,0,0,1,1332,-1048) translate(56 31.9)"/><use xlink:href="#q" transform="matrix(1,0,0,1,1332,-1048) translate(75 31.9)"/><use xlink:href="#E" transform="matrix(1,0,0,1,1332,-1048) translate(90.5 31.9)"/><use xlink:href="#F" transform="matrix(1,0,0,1,1332,-1048) translate(126.5 31.9)"/><use xlink:href="#G" transform="matrix(1,0,0,1,1332,-1048) translate(138.5 31.9)"/><path d="M1431.5-1081.58h-3l-.02-23.25h3zm-6.33-79.83l1.15.26 1.1.45 1 .63.9.76.75.9.62 1 .44 1.08.3 1.2v28.7h-3v-28.34l-.16-.63-.27-.64-.36-.6-.46-.54-.54-.46-.6-.37-.65-.28-.7-.16-.76-.06H1319.5v-3h104.56z" stroke="#bdf139" stroke-width=".05" fill="#bdf139"/><path d="M1319.54-1158.5h-1.77l.14-.5.1-1-.1-1-.13-.5h1.77z" fill="#bdf139"/><path d="M1319.57-1158.47h-1.83l.15-.52.08-1-.1-1-.14-.53h1.83zm-1.77-3l.13.45.1 1.02-.1 1.02-.13.45h1.72v-2.94z" stroke="#bdf139" stroke-width=".05" fill="#bdf139"/><path d="M1430-1065.82l-4.64-14.26h9.28z" fill="#bdf139"/><path d="M1430-1060.96l-6.7-20.62h13.4zm-2.57-17.62l2.57 7.9 2.57-7.9z" stroke="#bdf139" stroke-width=".05" fill="#bdf139"/><g><use xlink:href="#w" transform="matrix(1,0,0,1,1414.55,-1126.4274255725743) translate(0 14.4)"/></g><path d="M1350-914a6 6 0 0 1 6-6h148a6 6 0 0 1 6 6v68a6 6 0 0 1-6 6h-148a6 6 0 0 1-6-6z" stroke="#a9a9a9" stroke-width="2" fill="#f5fbff"/><g><use xlink:href="#x" transform="matrix(1,0,0,1,1362,-908) translate(33.5 31.9)"/><use xlink:href="#m" transform="matrix(1,0,0,1,1362,-908) translate(47.5 31.9)"/><use xlink:href="#H" transform="matrix(1,0,0,1,1362,-908) translate(63 31.9)"/><use xlink:href="#q" transform="matrix(1,0,0,1,1362,-908) translate(77 31.9)"/><use xlink:href="#r" transform="matrix(1,0,0,1,1362,-908) translate(92.5 31.9)"/></g><path d="M1430-977.54v35.96" stroke="#bdf139" stroke-width="3" fill="none"/><path d="M1431.5-977.5h-3v-1.54h3z" stroke="#bdf139" stroke-width=".05" fill="#bdf139"/><path d="M1430-925.82l-4.64-14.26h9.28z" stroke="#bdf139" stroke-width="3" fill="#bdf139"/><path d="M1470-740c0 22.1-17.9 40-40 40s-40-17.9-40-40 17.9-40 40-40 40 17.9 40 40z" stroke="#a9a9a9" stroke-width="2" fill="#ffdda6"/><g><use xlink:href="#B" transform="matrix(1,0,0,1,1395,-775) translate(29 38.4625)"/></g><path d="M1430-837.54v35.92" stroke="#bdf139" stroke-width="3" fill="none"/><path d="M1431.5-837.5h-3v-1.54h3z" stroke="#bdf139" stroke-width=".05" fill="#bdf139"/><path d="M1430-785.85l-4.64-14.27h9.28z" stroke="#bdf139" stroke-width="3" fill="#bdf139"/><path d="M1240-1257.5v17.88" stroke="#bdf139" stroke-width="3" fill="none"/><path d="M1240-1259l1.5-.05v1.6h-3v-1.64z" stroke="#bdf139" stroke-width=".05" fill="#bdf139"/><path d="M1240-1223.86l-4.64-14.26h9.28z" stroke="#bdf139" stroke-width="3" fill="#bdf139"/><path d="M969.18-1014.7a10 10 0 0 1 8.82-5.3h106c8.84 0 16 26.86 16 60s-7.16 60-16 60H978a10 10 0 0 1-8.82-5.3l-26.36-49.4a11.25 11.25 0 0 1 0-10.6z" stroke="#a9a9a9" stroke-width="2" fill="#f5fbff"/><g><use xlink:href="#I" transform="matrix(1,0,0,1,945,-1015) translate(69.03 59.0875)"/></g><path d="M1021.5-1041.58h-3l.02-28.6h3zm139-116.92h-134.44l-.76.06-.7.16-.64.27-.6.36-.54.46-.46.54-.37.6-.28.65-.15.64-.04 62.97h-3l.04-63.32.3-1.2.44-1.1.63-1 .76-.9.9-.75 1-.62 1.08-.44 1.15-.27 1.1-.1h134.57z" stroke="#bdf139" stroke-width=".05" fill="#bdf139"/><path d="M1162.1-1161l-.1 1 .1 1 .13.5h-1.77v-3h1.77z" fill="#bdf139"/><path d="M1162.1-1161l-.08 1 .1 1 .14.53h-1.83v-3.06h1.83zm-1.62-.47v2.94h1.72l-.13-.45-.1-1.02.1-1.02.13-.45z" stroke="#bdf139" stroke-width=".05" fill="#bdf139"/><path d="M1020-1025.82l-4.64-14.27h9.28z" fill="#bdf139"/><path d="M1020-1020.97l-6.7-20.62h13.4zm-2.57-17.62l2.57 7.93 2.57-7.92z" stroke="#bdf139" stroke-width=".05" fill="#bdf139"/><g><use xlink:href="#A" transform="matrix(1,0,0,1,1000.525,-1091.793092940979) translate(0 14.4)"/></g><path d="M1068-780c17.67 0 32 17.9 32 40s-14.33 40-32 40h-96c-17.67 0-32-17.9-32-40s14.33-40 32-40z" stroke="#a9a9a9" stroke-width="2" fill="#f5fbff"/><g><use xlink:href="#J" transform="matrix(1,0,0,1,945,-775) translate(59.55 38.4625)"/></g><path d="M1020.4-897.5v95.88" stroke="#bdf139" stroke-width="3" fill="none"/><path d="M1021.9-897.46h-3V-899h3z" stroke="#bdf139" stroke-width=".05" fill="#bdf139"/><path d="M1020.4-785.85l-4.62-14.27h9.27z" stroke="#bdf139" stroke-width="3" fill="#bdf139"/><defs><path fill="#fff" d="M24 0v-248h195v40H76v63h132v40H76v65h150V0H24" id="K"/><path fill="#fff" d="M182 0l-62-99L58 0H3l86-130-79-118h55l55 88 55-88h55l-75 118L237 0h-55" id="L"/><path fill="#fff" d="M240-174c0 40-23 61-54 70L253 0h-59l-57-94H76V0H24v-248c93 4 217-23 216 74zM76-134c48-2 112 12 112-38 0-48-66-32-112-35v73" id="M"/><path fill="#fff" d="M67-125c0 53 21 87 73 88 37 1 54-22 65-47l45 17C233-25 199 4 140 4 58 4 20-42 15-125 8-235 124-281 211-232c18 10 29 29 36 50l-46 12c-8-25-30-41-62-41-52 0-71 34-72 86" id="N"/><path fill="#fff" d="M18-269v-5l45-45h45v8l-60 42H18zM24 0v-248h52V0H24" id="O"/><path fill="#fff" d="M24 0v-248h52V0H24" id="P"/><path fill="#fff" d="M140-251c80 0 125 45 125 126S219 4 139 4C58 4 15-44 15-125s44-126 125-126zm-1 214c52 0 73-35 73-88 0-50-21-86-72-86-52 0-73 35-73 86s22 88 72 88" id="Q"/><g id="a"><use transform="matrix(0.09259259259259255,0,0,0.09259259259259255,0,0)" xlink:href="#K"/><use transform="matrix(0.09259259259259255,0,0,0.09259259259259255,22.22222222222221,0)" xlink:href="#L"/><use transform="matrix(0.09259259259259255,0,0,0.09259259259259255,44.44444444444442,0)" xlink:href="#K"/><use transform="matrix(0.09259259259259255,0,0,0.09259259259259255,66.66666666666663,0)" xlink:href="#M"/><use transform="matrix(0.09259259259259255,0,0,0.09259259259259255,90.6481481481481,0)" xlink:href="#N"/><use transform="matrix(0.09259259259259255,0,0,0.09259259259259255,114.62962962962958,0)" xlink:href="#O"/><use transform="matrix(0.09259259259259255,0,0,0.09259259259259255,123.8888888888888,0)" xlink:href="#N"/><use transform="matrix(0.09259259259259255,0,0,0.09259259259259255,147.8703703703703,0)" xlink:href="#P"/><use transform="matrix(0.09259259259259255,0,0,0.09259259259259255,157.12962962962956,0)" xlink:href="#Q"/></g><path fill="#fff" d="M175 0L67-191c6 58 2 128 3 191H24v-248h59L193-55c-6-58-2-129-3-193h46V0h-61" id="R"/><path fill="#fff" d="M24-248c120-7 223 5 221 122C244-46 201 0 124 0H24v-248zM76-40c74 7 117-18 117-86 0-67-45-88-117-82v168" id="S"/><path fill="#fff" d="M147 0H94L2-248h55l64 206c17-72 42-137 63-206h54" id="T"/><path fill="#fff" d="M238-95c0 69-44 99-111 99C63 4 22-25 22-93v-155h51v151c-1 38 19 59 55 60 90 1 49-130 58-211h52v153" id="U"/><path fill="#fff" d="M199 0l-22-63H83L61 0H9l90-248h61L250 0h-51zm-33-102l-36-108c-10 38-24 72-36 108h72" id="V"/><path fill="#fff" d="M24 0v-248h52v208h133V0H24" id="W"/><g id="b"><use transform="matrix(0.09259259259259255,0,0,0.09259259259259255,0,0)" xlink:href="#P"/><use transform="matrix(0.09259259259259255,0,0,0.09259259259259255,9.259259259259254,0)" xlink:href="#R"/><use transform="matrix(0.09259259259259255,0,0,0.09259259259259255,33.240740740740726,0)" xlink:href="#S"/><use transform="matrix(0.09259259259259255,0,0,0.09259259259259255,57.22222222222221,0)" xlink:href="#P"/><use transform="matrix(0.09259259259259255,0,0,0.09259259259259255,66.48148148148145,0)" xlink:href="#T"/><use transform="matrix(0.09259259259259255,0,0,0.09259259259259255,88.70370370370367,0)" xlink:href="#P"/><use transform="matrix(0.09259259259259255,0,0,0.09259259259259255,97.96296296296292,0)" xlink:href="#S"/><use transform="matrix(0.09259259259259255,0,0,0.09259259259259255,121.94444444444439,0)" xlink:href="#U"/><use transform="matrix(0.09259259259259255,0,0,0.09259259259259255,145.92592592592587,0)" xlink:href="#V"/><use transform="matrix(0.09259259259259255,0,0,0.09259259259259255,169.90740740740733,0)" xlink:href="#W"/></g><path fill="#fff" d="M14-72v-43h91v43H14" id="X"/><use transform="matrix(0.09259259259259255,0,0,0.09259259259259255,0,0)" xlink:href="#X" id="c"/><path fill="#fff" d="M136-208V0H84v-208H4v-40h212v40h-80" id="Y"/><path fill="#fff" d="M169-182c-1-43-94-46-97-3 18 66 151 10 154 114 3 95-165 93-204 36-6-8-10-19-12-30l50-8c3 46 112 56 116 5-17-69-150-10-154-114-4-87 153-88 188-35 5 8 8 18 10 28" id="Z"/><g id="d"><use transform="matrix(0.09259259259259255,0,0,0.09259259259259255,0,0)" xlink:href="#T"/><use transform="matrix(0.09259259259259255,0,0,0.09259259259259255,22.22222222222221,0)" xlink:href="#K"/><use transform="matrix(0.09259259259259255,0,0,0.09259259259259255,44.44444444444442,0)" xlink:href="#Y"/><use transform="matrix(0.09259259259259255,0,0,0.09259259259259255,64.07407407407405,0)" xlink:href="#Q"/><use transform="matrix(0.09259259259259255,0,0,0.09259259259259255,89.99999999999996,0)" xlink:href="#M"/><use transform="matrix(0.09259259259259255,0,0,0.09259259259259255,113.98148148148142,0)" xlink:href="#K"/><use transform="matrix(0.09259259259259255,0,0,0.09259259259259255,136.20370370370364,0)" xlink:href="#Z"/></g><use transform="matrix(0.09259259259259255,0,0,0.09259259259259255,0,0)" xlink:href="#V" id="e"/><path fill="#fff" d="M185-48c-13 30-37 53-82 52C43 2 14-33 14-96s30-98 90-98c62 0 83 45 84 108H66c0 31 8 55 39 56 18 0 30-7 34-22zm-45-69c5-46-57-63-70-21-2 6-4 13-4 21h74" id="aa"/><use transform="matrix(0.09259259259259255,0,0,0.09259259259259255,0,0)" xlink:href="#aa" id="f"/><path fill="#fff" d="M182-130c37 4 62 22 62 59C244 23 116-4 24 0v-248c84 5 203-23 205 63 0 31-19 50-47 55zM76-148c40-3 101 13 101-30 0-44-60-28-101-31v61zm0 110c48-3 116 14 116-37 0-48-69-32-116-35v72" id="ab"/><use transform="matrix(0.09259259259259255,0,0,0.09259259259259255,0,0)" xlink:href="#ab" id="g"/><path fill="#54c45e" d="M205 0l-28-72H64L36 0H1l101-248h38L239 0h-34zm-38-99l-47-123c-12 45-31 82-46 123h93" id="ac"/><path fill="#54c45e" d="M30 0v-248h33v221h125V0H30" id="ad"/><path fill="#54c45e" d="M143 4C61 4 22-44 18-125c-5-107 100-154 193-111 17 8 29 25 37 43l-32 9c-13-25-37-40-76-40-61 0-88 39-88 99 0 61 29 100 91 101 35 0 62-11 79-27v-45h-74v-28h105v86C228-13 192 4 143 4" id="ae"/><path fill="#54c45e" d="M140-251c81 0 123 46 123 126C263-46 219 4 140 4 59 4 17-45 17-125s42-126 123-126zm0 227c63 0 89-41 89-101s-29-99-89-99c-61 0-89 39-89 99S79-25 140-24" id="af"/><path fill="#54c45e" d="M233-177c-1 41-23 64-60 70L243 0h-38l-65-103H63V0H30v-248c88 3 205-21 203 71zM63-129c60-2 137 13 137-47 0-61-80-42-137-45v92" id="ag"/><path fill="#54c45e" d="M33 0v-248h34V0H33" id="ah"/><path fill="#54c45e" d="M127-220V0H93v-220H8v-28h204v28h-85" id="ai"/><path fill="#54c45e" d="M240 0l2-218c-23 76-54 145-80 218h-23L58-218 59 0H30v-248h44l77 211c21-75 51-140 76-211h43V0h-30" id="aj"/><path fill="#54c45e" d="M185-189c-5-48-123-54-124 2 14 75 158 14 163 119 3 78-121 87-175 55-17-10-28-26-33-46l33-7c5 56 141 63 141-1 0-78-155-14-162-118-5-82 145-84 179-34 5 7 8 16 11 25" id="ak"/><g id="h"><use transform="matrix(0.0679012345679012,0,0,0.0679012345679012,0,0)" xlink:href="#ac"/><use transform="matrix(0.0679012345679012,0,0,0.0679012345679012,16.29629629629629,0)" xlink:href="#ad"/><use transform="matrix(0.0679012345679012,0,0,0.0679012345679012,29.87654320987653,0)" xlink:href="#ae"/><use transform="matrix(0.0679012345679012,0,0,0.0679012345679012,48.88888888888887,0)" xlink:href="#af"/><use transform="matrix(0.0679012345679012,0,0,0.0679012345679012,67.90123456790121,0)" xlink:href="#ag"/><use transform="matrix(0.0679012345679012,0,0,0.0679012345679012,85.48765432098762,0)" xlink:href="#ah"/><use transform="matrix(0.0679012345679012,0,0,0.0679012345679012,92.27777777777776,0)" xlink:href="#ai"/><use transform="matrix(0.0679012345679012,0,0,0.0679012345679012,107.14814814814811,0)" xlink:href="#aj"/><use transform="matrix(0.0679012345679012,0,0,0.0679012345679012,127.45061728395058,0)" xlink:href="#af"/><use transform="matrix(0.0679012345679012,0,0,0.0679012345679012,146.4629629629629,0)" xlink:href="#ak"/></g><path fill="#54c45e" d="M30-248c118-7 216 8 213 122C240-48 200 0 122 0H30v-248zM63-27c89 8 146-16 146-99s-60-101-146-95v194" id="al"/><path fill="#54c45e" d="M30 0v-248h187v28H63v79h144v27H63v87h162V0H30" id="am"/><g id="i"><use transform="matrix(0.0679012345679012,0,0,0.0679012345679012,0,0)" xlink:href="#al"/><use transform="matrix(0.0679012345679012,0,0,0.0679012345679012,17.58641975308641,0)" xlink:href="#am"/></g><path fill="#54c45e" d="M30-248c87 1 191-15 191 75 0 78-77 80-158 76V0H30v-248zm33 125c57 0 124 11 124-50 0-59-68-47-124-48v98" id="an"/><path fill="#54c45e" d="M212-179c-10-28-35-45-73-45-59 0-87 40-87 99 0 60 29 101 89 101 43 0 62-24 78-52l27 14C228-24 195 4 139 4 59 4 22-46 18-125c-6-104 99-153 187-111 19 9 31 26 39 46zM142 18c19-1 33 8 33 26 0 31-30 33-64 32V58c18 2 39 4 41-13 1-15-18-13-34-13l12-32h19" id="ao"/><path fill="#54c45e" d="M184-316c-4 23-8 48-36 47s-64-43-75 0H57c4-23 8-48 36-47s64 44 74 0h17zM205 0l-28-72H64L36 0H1l101-248h38L239 0h-34zm-38-99l-47-123c-12 45-31 82-46 123h93" id="ap"/><g id="j"><use transform="matrix(0.0679012345679012,0,0,0.0679012345679012,0,0)" xlink:href="#an"/><use transform="matrix(0.0679012345679012,0,0,0.0679012345679012,16.29629629629629,0)" xlink:href="#ag"/><use transform="matrix(0.0679012345679012,0,0,0.0679012345679012,33.8827160493827,0)" xlink:href="#af"/><use transform="matrix(0.0679012345679012,0,0,0.0679012345679012,52.895061728395035,0)" xlink:href="#ae"/><use transform="matrix(0.0679012345679012,0,0,0.0679012345679012,71.90740740740738,0)" xlink:href="#ac"/><use transform="matrix(0.0679012345679012,0,0,0.0679012345679012,88.20370370370367,0)" xlink:href="#aj"/><use transform="matrix(0.0679012345679012,0,0,0.0679012345679012,108.50617283950612,0)" xlink:href="#ac"/><use transform="matrix(0.0679012345679012,0,0,0.0679012345679012,124.80246913580241,0)" xlink:href="#ao"/><use transform="matrix(0.0679012345679012,0,0,0.0679012345679012,142.38888888888883,0)" xlink:href="#ap"/><use transform="matrix(0.0679012345679012,0,0,0.0679012345679012,158.6851851851851,0)" xlink:href="#af"/></g><path fill="#282c33" d="M33 0v-248h34V0H33" id="aq"/><path fill="#282c33" d="M190 0L58-211 59 0H30v-248h39L202-35l-2-213h31V0h-41" id="ar"/><path fill="#282c33" d="M212-179c-10-28-35-45-73-45-59 0-87 40-87 99 0 60 29 101 89 101 43 0 62-24 78-52l27 14C228-24 195 4 139 4 59 4 22-46 18-125c-6-104 99-153 187-111 19 9 31 26 39 46" id="as"/><path fill="#282c33" d="M140-251c81 0 123 46 123 126C263-46 219 4 140 4 59 4 17-45 17-125s42-126 123-126zm0 227c63 0 89-41 89-101s-29-99-89-99c-61 0-89 39-89 99S79-25 140-24" id="at"/><g id="k"><use transform="matrix(0.05,0,0,0.05,0,0)" xlink:href="#aq"/><use transform="matrix(0.05,0,0,0.05,5,0)" xlink:href="#ar"/><use transform="matrix(0.05,0,0,0.05,17.950000000000003,0)" xlink:href="#aq"/><use transform="matrix(0.05,0,0,0.05,22.950000000000003,0)" xlink:href="#as"/><use transform="matrix(0.05,0,0,0.05,35.900000000000006,0)" xlink:href="#aq"/><use transform="matrix(0.05,0,0,0.05,40.900000000000006,0)" xlink:href="#at"/></g><path fill="#282c33" d="M195 0l-74-108L45 0H8l94-129-87-119h37l69 98 67-98h37l-84 118L233 0h-38" id="au"/><use transform="matrix(0.05,0,0,0.05,0,0)" xlink:href="#au" id="l"/><path fill="#282c33" d="M18-150v-26h174v26H18zm0 90v-26h174v26H18" id="av"/><use transform="matrix(0.05,0,0,0.05,0,0)" xlink:href="#av" id="m"/><path fill="#282c33" d="M101-251c68 0 85 55 85 127S166 4 100 4C33 4 14-52 14-124c0-73 17-127 87-127zm-1 229c47 0 54-49 54-102s-4-102-53-102c-51 0-55 48-55 102 0 53 5 102 54 102" id="aw"/><use transform="matrix(0.05,0,0,0.05,0,0)" xlink:href="#aw" id="n"/><use transform="matrix(0.05,0,0,0.05,0,0)" xlink:href="#av" id="o"/><use transform="matrix(0.05,0,0,0.05,0,0)" xlink:href="#au" id="p"/><path fill="#282c33" d="M118-107v75H92v-75H18v-26h74v-75h26v75h74v26h-74" id="ax"/><use transform="matrix(0.05,0,0,0.05,0,0)" xlink:href="#ax" id="q"/><path fill="#282c33" d="M27 0v-27h64v-190l-56 39v-29l58-41h29v221h61V0H27" id="ay"/><use transform="matrix(0.05,0,0,0.05,0,0)" xlink:href="#ay" id="r"/><path fill="#282c33" d="M205 0l-28-72H64L36 0H1l101-248h38L239 0h-34zm-38-99l-47-123c-12 45-31 82-46 123h93" id="az"/><path fill="#282c33" d="M26 75v-336h71v23H56V52h41v23H26" id="aA"/><path fill="#282c33" d="M3 75V52h41v-290H3v-23h71V75H3" id="aB"/><path fill="#282c33" d="M68-38c1 34 0 65-14 84H32c9-13 17-26 17-46H33v-38h35" id="aC"/><path fill="#282c33" d="M160-131c35 5 61 23 61 61C221 17 115-2 30 0v-248c76 3 177-17 177 60 0 33-19 50-47 57zm-97-11c50-1 110 9 110-42 0-47-63-36-110-37v79zm0 115c55-2 124 14 124-45 0-56-70-42-124-44v89" id="aD"/><g id="s"><use transform="matrix(0.05,0,0,0.05,0,0)" xlink:href="#az"/><use transform="matrix(0.05,0,0,0.05,12,0)" xlink:href="#aA"/><use transform="matrix(0.05,0,0,0.05,17,0)" xlink:href="#au"/><use transform="matrix(0.05,0,0,0.05,29,0)" xlink:href="#aB"/><use transform="matrix(0.05,0,0,0.05,34,0)" xlink:href="#aC"/><use transform="matrix(0.05,0,0,0.05,39,0)" xlink:href="#aD"/><use transform="matrix(0.05,0,0,0.05,51,0)" xlink:href="#aA"/><use transform="matrix(0.05,0,0,0.05,56,0)" xlink:href="#au"/><use transform="matrix(0.05,0,0,0.05,68,0)" xlink:href="#aB"/></g><path fill="#282c33" d="M18-100v-36l175-74v27L42-118l151 64v27" id="aE"/><use transform="matrix(0.05,0,0,0.05,0,0)" xlink:href="#aE" id="t"/><path fill="#282c33" d="M54-142c48-35 137-8 131 61C196 18 31 33 14-55l32-4c7 23 22 37 52 37 35-1 51-22 54-58 4-55-73-65-99-34H22l8-134h141v27H59" id="aF"/><use transform="matrix(0.05,0,0,0.05,0,0)" xlink:href="#aF" id="u"/><use transform="matrix(0.05,0,0,0.05,0,0)" xlink:href="#az" id="v"/><path fill="#fff" d="M185-189c-5-48-123-54-124 2 14 75 158 14 163 119 3 78-121 87-175 55-17-10-28-26-33-46l33-7c5 56 141 63 141-1 0-78-155-14-162-118-5-82 145-84 179-34 5 7 8 16 11 25" id="aG"/><path fill="#fff" d="M24-231v-30h32v30H24zM24 0v-190h32V0H24" id="aH"/><path fill="#fff" d="M210-169c-67 3-38 105-44 169h-31v-121c0-29-5-50-35-48C34-165 62-65 56 0H25l-1-190h30c1 10-1 24 2 32 10-44 99-50 107 0 11-21 27-35 58-36 85-2 47 119 55 194h-31v-121c0-29-5-49-35-48" id="aI"/><g id="w"><use transform="matrix(0.05,0,0,0.05,0,0)" xlink:href="#aG"/><use transform="matrix(0.05,0,0,0.05,12,0)" xlink:href="#aH"/><use transform="matrix(0.05,0,0,0.05,15.949999999999998,0)" xlink:href="#aI"/></g><path fill="#282c33" d="M141 0L90-78 38 0H4l68-98-65-92h35l48 74 47-74h35l-64 92 68 98h-35" id="aJ"/><use transform="matrix(0.05,0,0,0.05,0,0)" xlink:href="#aJ" id="x"/><use transform="matrix(0.05,0,0,0.05,0,0)" xlink:href="#aw" id="y"/><path fill="#282c33" d="M96-169c-40 0-48 33-48 73s9 75 48 75c24 0 41-14 43-38l32 2c-6 37-31 61-74 61-59 0-76-41-82-99-10-93 101-131 147-64 4 7 5 14 7 22l-32 3c-4-21-16-35-41-35" id="aK"/><use transform="matrix(0.05,0,0,0.05,0,0)" xlink:href="#aK" id="z"/><path fill="#fff" d="M190 0L58-211 59 0H30v-248h39L202-35l-2-213h31V0h-41" id="aL"/><path fill="#fff" d="M184-316c-4 23-8 48-36 47s-64-43-75 0H57c4-23 8-48 36-47s64 44 74 0h17zM205 0l-28-72H64L36 0H1l101-248h38L239 0h-34zm-38-99l-47-123c-12 45-31 82-46 123h93" id="aM"/><path fill="#fff" d="M140-251c81 0 123 46 123 126C263-46 219 4 140 4 59 4 17-45 17-125s42-126 123-126zm0 227c63 0 89-41 89-101s-29-99-89-99c-61 0-89 39-89 99S79-25 140-24" id="aN"/><g id="A"><use transform="matrix(0.05,0,0,0.05,0,0)" xlink:href="#aL"/><use transform="matrix(0.05,0,0,0.05,12.950000000000001,0)" xlink:href="#aM"/><use transform="matrix(0.05,0,0,0.05,24.950000000000003,0)" xlink:href="#aN"/></g><use transform="matrix(0.05,0,0,0.05,0,0)" xlink:href="#aD" id="B"/><use transform="matrix(0.05,0,0,0.05,0,0)" xlink:href="#aK" id="C"/><use transform="matrix(0.05,0,0,0.05,0,0)" xlink:href="#aK" id="D"/><g id="E"><use transform="matrix(0.05,0,0,0.05,0,0)" xlink:href="#az"/><use transform="matrix(0.05,0,0,0.05,12,0)" xlink:href="#aA"/><use transform="matrix(0.05,0,0,0.05,17,0)" xlink:href="#aJ"/><use transform="matrix(0.05,0,0,0.05,26,0)" xlink:href="#aB"/></g><path fill="#282c33" d="M80-196l47-18 7 23-49 13 32 44-20 13-27-46-27 45-21-12 33-44-49-13 8-23 47 19-2-53h23" id="aO"/><use transform="matrix(0.05,0,0,0.05,0,0)" xlink:href="#aO" id="F"/><g id="G"><use transform="matrix(0.05,0,0,0.05,0,0)" xlink:href="#aD"/><use transform="matrix(0.05,0,0,0.05,12,0)" xlink:href="#aA"/><use transform="matrix(0.05,0,0,0.05,17,0)" xlink:href="#aJ"/><use transform="matrix(0.05,0,0,0.05,26,0)" xlink:href="#aB"/></g><use transform="matrix(0.05,0,0,0.05,0,0)" xlink:href="#aJ" id="H"/><use transform="matrix(0.05,0,0,0.05,0,0)" xlink:href="#as" id="I"/><path fill="#282c33" d="M63-220v92h138v28H63V0H30v-248h175v28H63" id="aP"/><path fill="#282c33" d="M240 0l2-218c-23 76-54 145-80 218h-23L58-218 59 0H30v-248h44l77 211c21-75 51-140 76-211h43V0h-30" id="aQ"/><g id="J"><use transform="matrix(0.05,0,0,0.05,0,0)" xlink:href="#aP"/><use transform="matrix(0.05,0,0,0.05,10.950000000000001,0)" xlink:href="#aq"/><use transform="matrix(0.05,0,0,0.05,15.950000000000001,0)" xlink:href="#aQ"/></g></defs></g></svg>